<?xml version="1.0" encoding="UTF-8"?> <svg xmlns="http://www.w3.org/2000/svg" width="136" height="41" viewBox="0 0 136 41" fill="none"> <path d="M130.671 40.2145H5.11699C2.55849 40.2145 0.499207 38.1553 0.499207 35.5968V5.89317C0.499207 3.33467 2.55849 1.27539 5.11699 1.27539H130.671C133.229 1.27539 135.289 3.33467 135.289 5.89317V35.6592C135.289 38.1553 133.229 40.2145 130.671 40.2145Z" fill="#1F1F1F"></path> <path d="M130.671 40.7754H5.117C2.30889 40.7754 0 38.4665 0 35.6584V5.8924C0 3.08428 2.30889 0.775391 5.117 0.775391H130.671C133.479 0.775391 135.788 3.08428 135.788 5.8924V35.6584C135.788 38.4665 133.479 40.7754 130.671 40.7754ZM5.117 1.77383C2.87051 1.77383 0.99844 3.5835 0.99844 5.8924V35.6584C0.99844 37.9049 2.80811 39.777 5.117 39.777H130.671C132.917 39.777 134.789 37.9673 134.789 35.6584V5.8924C134.789 3.64591 132.98 1.77383 130.671 1.77383H5.117Z" fill="#505050"></path> <path d="M45.1793 12.1333L44.6177 14.0054H43.3696L45.4913 7.45312H47.0514L49.1731 14.0054H47.8626L47.2386 12.1333H45.1793ZM47.1138 11.2597L46.6146 9.63721C46.4898 9.2628 46.3649 8.76358 46.3025 8.38916C46.1777 8.76358 46.1153 9.20039 45.9905 9.63721L45.4913 11.2597H47.1138Z" fill="white"></path> <path d="M50.9828 9.2627L51.7316 11.6964C51.8564 12.1332 51.9812 12.5076 52.0436 12.882C52.106 12.5076 52.2308 12.1332 52.3556 11.6964L53.1045 9.2627H54.3525L52.5428 14.0053H51.3572L49.6099 9.2627H50.9828Z" fill="white"></path> <path d="M59.2199 12.8818C59.2199 13.3187 59.2199 13.7555 59.2823 14.0051H58.2215L58.1591 13.5059C57.8471 13.8803 57.4103 14.1299 56.7862 14.1299C55.8502 14.1299 55.2886 13.4435 55.2886 12.6946C55.2886 11.509 56.3494 10.885 58.0967 10.885V10.8226C58.0967 10.5106 57.9719 10.0113 57.1606 10.0113C56.7238 10.0113 56.2246 10.1361 55.9126 10.3857L55.5382 9.57451C55.9126 9.38731 56.4742 9.1377 57.2231 9.1377C58.7207 9.1377 59.1575 10.0737 59.1575 11.1346V12.8818H59.2199ZM58.0343 11.6962C57.1607 11.6962 56.3494 11.8834 56.3494 12.5698C56.3494 13.0067 56.6614 13.2563 57.0358 13.2563C57.5351 13.2563 57.8471 12.9442 57.9719 12.6322C57.9719 12.5698 57.9719 12.445 57.9719 12.3826V11.6962H58.0343Z" fill="white"></path> <path d="M61.4665 8.57617C61.092 8.57617 60.78 8.26416 60.78 7.95215C60.78 7.57773 61.0296 7.32812 61.4665 7.32812C61.9033 7.32812 62.1529 7.64014 62.1529 7.95215C62.1529 8.26416 61.9033 8.57617 61.4665 8.57617ZM60.9048 14.0052V9.2626H62.0905V14.0052H60.9048Z" fill="white"></path> <path d="M63.8377 7.07812H65.0234V14.0048H63.8377V7.07812Z" fill="white"></path> <path d="M70.4524 12.8819C70.4524 13.3188 70.4524 13.7556 70.5148 14.0052H69.4539L69.3915 13.506C69.0795 13.8804 68.6427 14.13 68.0187 14.13C67.0826 14.13 66.521 13.4436 66.521 12.6947C66.521 11.5091 67.5818 10.8851 69.3291 10.8851V10.8227C69.3291 10.5106 69.2043 10.0114 68.3931 10.0114C67.9563 10.0114 67.457 10.1362 67.145 10.3858L66.8954 9.63701C67.2698 9.44981 67.8315 9.2002 68.5803 9.2002C70.0779 9.2002 70.5148 10.1362 70.5148 11.1971V12.8819H70.4524ZM69.2667 11.6963C68.3931 11.6963 67.5818 11.8835 67.5818 12.5699C67.5818 13.0067 67.8939 13.2564 68.2683 13.2564C68.7675 13.2564 69.0795 12.9443 69.2043 12.6323C69.2043 12.5699 69.2043 12.4451 69.2043 12.3827V11.6963H69.2667Z" fill="white"></path> <path d="M72.1372 7.07812H73.3229V9.88624C73.6349 9.44942 74.1341 9.13741 74.8205 9.13741C76.0062 9.13741 76.8174 10.0734 76.8174 11.5711C76.8174 13.256 75.7566 14.1296 74.6957 14.1296C74.0717 14.1296 73.5101 13.88 73.1981 13.3184L73.1356 14.0048H72.1372C72.1372 13.6928 72.1996 13.1312 72.1996 12.6943V7.07812H72.1372ZM73.3229 12.0703C73.3229 12.1951 73.3229 12.2575 73.3229 12.3823C73.4477 12.8816 73.8845 13.1936 74.3837 13.1936C75.1325 13.1936 75.5693 12.5695 75.5693 11.6335C75.5693 10.8223 75.1949 10.1358 74.3837 10.1358C73.8845 10.1358 73.4477 10.5103 73.3229 11.0095C73.3229 11.0719 73.2605 11.1967 73.2605 11.3215V12.0703H73.3229Z" fill="white"></path> <path d="M78.2527 7.07812H79.4384V14.0048H78.2527V7.07812Z" fill="white"></path> <path d="M82.0592 11.9459C82.0592 12.8195 82.7457 13.194 83.4945 13.194C84.0561 13.194 84.4305 13.1316 84.8049 13.0067L84.9922 13.818C84.5553 14.0052 83.9937 14.13 83.3073 14.13C81.7472 14.13 80.8736 13.194 80.8736 11.7587C80.8736 10.4482 81.6848 9.2002 83.1825 9.2002C84.7425 9.2002 85.2418 10.4482 85.2418 11.5091C85.2418 11.7587 85.2418 11.8835 85.1794 12.0083H82.0592V11.9459ZM84.1185 11.1347C84.1185 10.6979 83.9313 9.94903 83.1201 9.94903C82.3713 9.94903 82.0592 10.6355 81.9968 11.1347H84.1185Z" fill="white"></path> <path d="M91.17 14.13C89.8596 14.13 88.7987 13.194 88.7987 11.6963C88.7987 10.1362 89.7971 9.2002 91.2324 9.2002C92.6677 9.2002 93.6037 10.1986 93.6037 11.6339C93.6037 13.3188 92.3557 14.13 91.17 14.13ZM91.17 13.2564C91.8564 13.2564 92.3556 12.5699 92.3556 11.6339C92.3556 10.8851 92.0436 10.0114 91.2324 10.0114C90.3588 10.0114 90.0468 10.8227 90.0468 11.6339C89.9844 12.5699 90.4836 13.2564 91.17 13.2564Z" fill="white"></path> <path d="M94.9765 10.6978C94.9765 10.1361 94.9765 9.69932 94.9141 9.2625H95.975L96.0374 9.94893C96.2246 9.57451 96.7862 9.1377 97.535 9.1377C98.3463 9.1377 99.2199 9.69932 99.2199 11.197V14.0051H98.0342V11.3218C98.0342 10.6354 97.7846 10.1361 97.0982 10.1361C96.599 10.1361 96.287 10.4481 96.1622 10.8226C96.0998 10.9474 96.0998 11.0722 96.0998 11.197V14.0051H94.9141V10.6978H94.9765Z" fill="white"></path> <path d="M104.836 8.01465V9.2627H105.959V10.1363H104.836V12.1956C104.836 12.7572 104.961 13.0693 105.46 13.0693C105.647 13.0693 105.772 13.0693 105.897 13.0068V13.9429C105.71 14.0053 105.398 14.0677 105.023 14.0677C104.587 14.0677 104.212 13.9429 103.963 13.6933C103.713 13.4437 103.588 13.0068 103.588 12.3828V10.1363H102.964V9.2627H103.651V8.38906L104.836 8.01465Z" fill="white"></path> <path d="M107.27 7.07812H108.456V9.88624C108.58 9.63663 108.83 9.44942 109.08 9.32461C109.329 9.19981 109.579 9.13741 109.891 9.13741C110.702 9.13741 111.576 9.69903 111.576 11.1967V14.0048H110.39V11.3215C110.39 10.6351 110.14 10.1358 109.454 10.1358C109.017 10.1358 108.643 10.4479 108.518 10.8223C108.456 10.9471 108.456 11.0719 108.456 11.1967V14.0672H107.27V7.07812Z" fill="white"></path> <path d="M114.134 11.9459C114.134 12.8195 114.821 13.194 115.569 13.194C116.131 13.194 116.505 13.1316 116.88 13.0067L117.067 13.818C116.63 14.0052 116.069 14.13 115.382 14.13C113.822 14.13 112.948 13.194 112.948 11.7587C112.948 10.4482 113.76 9.2002 115.257 9.2002C116.817 9.2002 117.317 10.4482 117.317 11.5091C117.317 11.7587 117.317 11.8835 117.254 12.0083H114.134V11.9459ZM116.193 11.1347C116.193 10.6979 116.006 9.94903 115.195 9.94903C114.446 9.94903 114.134 10.6355 114.072 11.1347H116.193Z" fill="white"></path> <path d="M30.3276 20.3701C30.3276 17.1252 33.0109 15.5651 33.1357 15.4403C31.638 13.1938 29.2667 12.9442 28.3931 12.8818C26.3962 12.6946 24.4618 14.0674 23.4633 14.0674C22.4025 14.0674 20.9048 12.8818 19.2199 12.9442C17.0359 13.0066 15.039 14.2547 13.9157 16.1891C11.6068 20.1205 13.3541 25.9863 15.5382 29.1689C16.6614 30.7289 17.9095 32.4762 19.5944 32.4138C21.2168 32.3514 21.8408 31.3529 23.7753 31.3529C25.7098 31.3529 26.3338 32.4138 28.0187 32.3514C29.766 32.3514 30.8892 30.7913 31.9501 29.1689C33.1981 27.3592 33.6973 25.6119 33.7597 25.4871C33.6973 25.5495 30.3276 24.2391 30.3276 20.3701Z" fill="white"></path> <path d="M27.0827 10.8227C27.9563 9.69942 28.5803 8.20176 28.3931 6.7041C27.1451 6.7665 25.5226 7.57774 24.5866 8.63858C23.7753 9.57462 23.0265 11.1347 23.2137 12.6323C24.7114 12.7571 26.1466 11.8835 27.0827 10.8227Z" fill="white"></path> <path d="M53.9781 32.1647H51.6692L50.4211 28.2333H46.053L44.9297 32.1647H42.6832L46.989 18.8105H49.6723L53.9781 32.1647ZM50.0467 26.5485L48.9235 23.0539C48.7987 22.6795 48.5491 21.8683 48.2371 20.5578H48.1746C48.0498 21.1194 47.8002 21.9931 47.5506 23.0539L46.4274 26.5485H50.0467Z" fill="white"></path> <path d="M65.0858 27.2344C65.0858 28.8569 64.649 30.1673 63.7753 31.1033C62.9641 31.977 61.9657 32.3514 60.8424 32.3514C59.5944 32.3514 58.6583 31.9146 58.0967 30.9785H58.0343V36.0331H55.9126V25.6743C55.9126 24.6135 55.9126 23.615 55.8502 22.4918H57.7223L57.8471 23.9895H57.9095C58.5959 22.8662 59.7192 22.2422 61.1544 22.2422C62.2777 22.2422 63.2137 22.679 64.0249 23.615C64.649 24.5511 65.0858 25.7367 65.0858 27.2344ZM62.9017 27.2968C62.9017 26.3608 62.7145 25.6119 62.2777 24.9879C61.8409 24.3639 61.2168 24.0519 60.4056 24.0519C59.9064 24.0519 59.4072 24.2391 58.9703 24.5511C58.5335 24.9255 58.2839 25.3623 58.0967 25.9239C58.0343 26.1735 57.9719 26.4232 57.9719 26.548V28.1704C57.9719 28.8569 58.1591 29.4809 58.5959 29.9177C59.0327 30.4169 59.5944 30.6665 60.2808 30.6665C61.092 30.6665 61.7161 30.3545 62.1529 29.7305C62.6521 29.1065 62.9017 28.2952 62.9017 27.2968Z" fill="white"></path> <path d="M76.131 27.2344C76.131 28.8569 75.6941 30.1673 74.8205 31.1033C74.0093 31.977 73.0732 32.3514 71.8876 32.3514C70.6395 32.3514 69.7035 31.9146 69.1419 30.9785H69.0795V36.0331H66.9578V25.6743C66.9578 24.6135 66.9578 23.615 66.8954 22.4918H68.7675L68.8923 23.9895H68.9547C69.6411 22.8662 70.7643 22.2422 72.1996 22.2422C73.3228 22.2422 74.2589 22.679 75.0701 23.615C75.7565 24.5511 76.131 25.7367 76.131 27.2344ZM73.9469 27.2968C73.9469 26.3608 73.7597 25.6119 73.3228 24.9879C72.886 24.3639 72.262 24.0519 71.4508 24.0519C70.9515 24.0519 70.4523 24.2391 70.0155 24.5511C69.5787 24.9255 69.3291 25.3623 69.2043 25.9239C69.1419 26.1735 69.0795 26.4232 69.0795 26.548V28.1704C69.0795 28.8569 69.2667 29.4809 69.7035 29.9177C70.1403 30.4169 70.7019 30.6665 71.3884 30.6665C72.1996 30.6665 72.8236 30.3545 73.2604 29.7305C73.7597 29.1065 73.9469 28.2952 73.9469 27.2968Z" fill="white"></path> <path d="M88.5491 28.4203C88.5491 29.5436 88.1747 30.4796 87.3635 31.2284C86.4898 32.0397 85.3042 32.4141 83.7441 32.4141C82.3088 32.4141 81.1232 32.1645 80.2496 31.6029L80.7488 29.7932C81.6848 30.3548 82.7457 30.6668 83.8689 30.6668C84.6801 30.6668 85.3042 30.4796 85.741 30.1052C86.1778 29.7308 86.4274 29.2316 86.4274 28.6699C86.4274 28.1083 86.2402 27.6715 85.8658 27.2971C85.4914 26.9227 84.8674 26.6107 83.9937 26.2362C81.6224 25.3626 80.4992 24.0522 80.4992 22.4297C80.4992 21.3065 80.936 20.4328 81.7472 19.7464C82.5585 19.06 83.6817 18.6855 84.9922 18.6855C86.2402 18.6855 87.2387 18.8728 88.0499 19.3096L87.4883 21.0568C86.7394 20.62 85.8658 20.4328 84.9298 20.4328C84.1809 20.4328 83.5569 20.62 83.1825 20.9944C82.8081 21.3065 82.6209 21.7433 82.6209 22.1801C82.6209 22.6793 82.8081 23.1161 83.2449 23.4905C83.6193 23.8026 84.2433 24.177 85.1794 24.5514C86.3026 24.9882 87.1762 25.5498 87.7379 26.1738C88.2995 26.6731 88.5491 27.4843 88.5491 28.4203Z" fill="white"></path> <path d="M95.663 24.1149H93.2917V28.795C93.2917 29.9807 93.7285 30.6047 94.5397 30.6047C94.9141 30.6047 95.2262 30.5423 95.4758 30.4799L95.5382 32.1024C95.1014 32.2896 94.5397 32.352 93.8533 32.352C92.9797 32.352 92.3556 32.1024 91.8564 31.6032C91.3572 31.1039 91.17 30.2303 91.17 28.9822V24.1149H89.7347V22.4924H91.17V20.7451L93.2917 20.1211V22.4924H95.663V24.1149Z" fill="white"></path> <path d="M106.334 27.2345C106.334 28.7321 105.897 29.9178 105.086 30.9162C104.212 31.9147 103.027 32.4139 101.529 32.4139C100.094 32.4139 98.9704 31.9147 98.1591 30.9786C97.3479 30.0426 96.9111 28.857 96.9111 27.4217C96.9111 25.924 97.3479 24.676 98.2215 23.7399C99.0952 22.8039 100.281 22.3047 101.716 22.3047C103.151 22.3047 104.275 22.8039 105.148 23.7399C105.897 24.6136 106.334 25.7992 106.334 27.2345ZM104.087 27.2969C104.087 26.4233 103.9 25.6744 103.526 24.988C103.089 24.2392 102.465 23.8023 101.591 23.8023C100.718 23.8023 100.094 24.1768 99.6568 24.988C99.2824 25.612 99.0952 26.4233 99.0952 27.2969C99.0952 28.1705 99.2824 28.9194 99.6568 29.6058C100.094 30.3546 100.78 30.729 101.591 30.729C102.402 30.729 103.027 30.3546 103.526 29.5434C103.9 28.9818 104.087 28.2329 104.087 27.2969Z" fill="white"></path> <path d="M113.26 24.3641C113.073 24.3017 112.824 24.3017 112.574 24.3017C111.825 24.3017 111.264 24.6137 110.827 25.1753C110.452 25.6745 110.265 26.2985 110.265 27.1098V32.1644H108.143V25.5497C108.143 24.4265 108.143 23.428 108.081 22.492H109.953L110.016 24.3641H110.078C110.328 23.74 110.64 23.2408 111.139 22.8664C111.638 22.492 112.137 22.3672 112.699 22.3672C112.886 22.3672 113.073 22.3672 113.26 22.4296V24.3641Z" fill="white"></path> <path d="M122.87 26.8602C122.87 27.2346 122.87 27.5466 122.808 27.8586H116.381C116.381 28.7946 116.693 29.5435 117.317 30.0427C117.878 30.4795 118.565 30.7291 119.438 30.7291C120.374 30.7291 121.248 30.6043 122.059 30.2923L122.371 31.79C121.435 32.1644 120.374 32.414 119.126 32.414C117.629 32.414 116.443 31.9772 115.632 31.1035C114.758 30.2299 114.321 29.0443 114.321 27.5466C114.321 26.1113 114.696 24.8633 115.507 23.9272C116.318 22.8664 117.441 22.3672 118.877 22.3672C120.25 22.3672 121.31 22.8664 122.059 23.9272C122.558 24.6761 122.87 25.6745 122.87 26.8602ZM120.811 26.2985C120.811 25.6745 120.686 25.1129 120.374 24.6761C120 24.0521 119.438 23.8024 118.689 23.8024C118.003 23.8024 117.441 24.1145 117.005 24.6761C116.63 25.1129 116.443 25.6745 116.381 26.3609H120.811V26.2985Z" fill="white"></path> </svg> 