<?xml version="1.0" encoding="UTF-8"?> <svg xmlns="http://www.w3.org/2000/svg" width="396" height="104" viewBox="0 0 396 104" fill="none"> <rect x="6.5" y="6.79199" width="89.2401" height="89.2401" stroke="white" stroke-width="13"></rect> <path d="M74.304 29.2441L72.4786 36.6312C71.7199 39.7237 68.9268 41.8873 65.7269 41.8873H36.7959L38.6213 34.4894C39.38 31.4078 42.1621 29.2441 45.362 29.2441H74.304Z" fill="white"></path> <path d="M41.012 47.3667C37.8217 47.3667 35.048 49.5702 34.2916 52.6929L28.7881 75.6031H36.3965C39.5977 75.6031 42.3823 73.3885 43.1498 70.2548L45.5397 60.1894H52.6877C55.8779 60.1894 58.6626 57.9858 59.419 54.8521L61.2389 47.3667H41.012V47.3667Z" fill="white"></path> <path d="M126.218 32.7013V50.5191H114.831V0.291992H150.387V10.704H126.218V22.7292H148.477V32.7013H126.218Z" fill="white"></path> <path d="M172.657 12.1705C175.547 12.1705 178.216 12.6838 180.665 13.7103C183.162 14.7369 185.317 16.13 187.129 17.8898C188.941 19.6496 190.362 21.7271 191.39 24.1224C192.419 26.5176 192.933 29.084 192.933 31.8214C192.933 34.5589 192.419 37.1252 191.39 39.5205C190.362 41.8668 188.941 43.9199 187.129 45.6797C185.317 47.4395 183.162 48.8326 180.665 49.8592C178.216 50.8857 175.547 51.399 172.657 51.399C169.768 51.399 167.074 50.9102 164.576 49.9325C162.128 48.906 159.997 47.5128 158.185 45.753C156.373 43.9932 154.953 41.9157 153.924 39.5205C152.945 37.1252 152.455 34.5589 152.455 31.8214C152.455 29.084 152.969 26.5176 153.998 24.1224C155.026 21.7271 156.422 19.6496 158.185 17.8898C159.997 16.13 162.128 14.7369 164.576 13.7103C167.074 12.6838 169.768 12.1705 172.657 12.1705ZM172.657 21.4094C171.237 21.4094 169.89 21.6782 168.617 22.2159C167.392 22.7048 166.315 23.4136 165.385 24.3423C164.503 25.2711 163.793 26.371 163.254 27.6419C162.764 28.9129 162.519 30.306 162.519 31.8214C162.519 33.3368 162.764 34.7299 163.254 36.0009C163.744 37.2718 164.43 38.3717 165.311 39.3005C166.193 40.2293 167.246 40.9625 168.47 41.5002C169.694 42.0379 171.017 42.3068 172.437 42.3068C173.857 42.3068 175.204 42.0379 176.477 41.5002C177.751 40.9625 178.853 40.2293 179.783 39.3005C180.714 38.3717 181.448 37.2718 181.987 36.0009C182.526 34.7299 182.795 33.3368 182.795 31.8214C182.795 30.306 182.526 28.9129 181.987 27.6419C181.497 26.371 180.787 25.2711 179.857 24.3423C178.975 23.4136 177.898 22.7048 176.624 22.2159C175.4 21.6782 174.078 21.4094 172.657 21.4094Z" fill="white"></path> <path d="M196.232 9.6775V0.291992H206.444V9.6775H196.232ZM196.232 50.5191V12.9038H206.444V50.5191H196.232Z" fill="white"></path> <path d="M210.58 50.5191V0.291992H220.865V50.5191H210.58Z" fill="white"></path> <path d="M125.777 70.6V102.423H114.831V50.5191H126.218L147.522 84.0917V52.1957H158.468V102.423H146.052L125.777 70.6Z" fill="white"></path> <path d="M201.717 94.3571C199.856 97.1434 197.456 99.3432 194.518 100.956C191.628 102.521 188.078 103.303 183.866 103.303C180.83 103.303 178.087 102.814 175.638 101.836C173.238 100.81 171.157 99.4409 169.394 97.73C167.68 95.9702 166.358 93.8927 165.427 91.4975C164.496 89.1022 164.031 86.5114 164.031 83.7251C164.031 81.0365 164.496 78.4946 165.427 76.0994C166.406 73.7041 167.778 71.6266 169.541 69.8668C171.304 68.0581 173.41 66.6405 175.859 65.614C178.307 64.5875 181.001 64.0742 183.939 64.0742C186.927 64.0742 189.596 64.563 191.947 65.5407C194.298 66.5183 196.281 67.8626 197.897 69.5735C199.562 71.2844 200.836 73.313 201.717 75.6594C202.599 77.9569 203.04 80.4744 203.04 83.2118C203.04 83.9451 203.015 84.7027 202.966 85.4849C202.917 86.267 202.893 86.7069 202.893 86.8047H174.096C174.634 89.2 175.761 91.1064 177.475 92.524C179.238 93.9416 181.442 94.6504 184.086 94.6504C186.388 94.6504 188.347 94.2105 189.963 93.3306C191.628 92.4018 193 91.1797 194.077 89.6644L201.717 94.3571ZM183.866 72.4332C181.466 72.4332 179.458 73.0442 177.842 74.2663C176.275 75.4394 175.148 77.1015 174.463 79.2523H192.755C192.216 76.9548 191.114 75.2439 189.449 74.1196C187.784 72.9953 185.923 72.4332 183.866 72.4332Z" fill="white"></path> <path d="M229.998 64.8074V73.8996H220.742V89.0044C220.742 90.7153 221.133 91.9374 221.917 92.6706C222.75 93.355 224.023 93.6972 225.737 93.6972H229.998V102.423H225.003C219.958 102.423 216.285 101.347 213.983 99.1965C211.681 96.9968 210.53 93.7705 210.53 89.5177V73.8996H205.094V64.8074H210.53V55.1286H220.742V64.8074H229.998Z" fill="white"></path> <path d="M261.279 80.9388L256.137 102.423H243.207L233.584 64.8074H243.869L250.039 90.6909L256.431 64.8074H266.715L273.033 90.8375L279.277 64.8074H289.195L279.498 102.423H266.421L261.279 80.9388Z" fill="white"></path> <path d="M310.43 64.0742C313.32 64.0742 315.989 64.5875 318.438 65.614C320.936 66.6405 323.09 68.0337 324.902 69.7935C326.715 71.5533 328.135 73.6308 329.163 76.026C330.192 78.4213 330.706 80.9876 330.706 83.7251C330.706 86.4625 330.192 89.0289 329.163 91.4241C328.135 93.7705 326.715 95.8236 324.902 97.5834C323.09 99.3431 320.936 100.736 318.438 101.763C315.989 102.789 313.32 103.303 310.43 103.303C307.541 103.303 304.847 102.814 302.35 101.836C299.901 100.81 297.77 99.4165 295.958 97.6567C294.146 95.8969 292.726 93.8194 291.698 91.4241C290.718 89.0289 290.228 86.4625 290.228 83.7251C290.228 80.9876 290.743 78.4213 291.771 76.026C292.799 73.6308 294.195 71.5533 295.958 69.7935C297.77 68.0337 299.901 66.6405 302.35 65.614C304.847 64.5875 307.541 64.0742 310.43 64.0742ZM310.43 73.313C309.01 73.313 307.663 73.5819 306.39 74.1196C305.166 74.6084 304.088 75.3172 303.158 76.246C302.276 77.1748 301.566 78.2747 301.027 79.5456C300.538 80.8166 300.293 82.2097 300.293 83.7251C300.293 85.2405 300.538 86.6336 301.027 87.9046C301.517 89.1755 302.203 90.2754 303.084 91.2042C303.966 92.1329 305.019 92.8662 306.243 93.4039C307.467 93.9416 308.79 94.2105 310.21 94.2105C311.63 94.2105 312.977 93.9416 314.25 93.4039C315.524 92.8662 316.626 92.1329 317.556 91.2042C318.487 90.2754 319.221 89.1755 319.76 87.9046C320.299 86.6336 320.568 85.2405 320.568 83.7251C320.568 82.2097 320.299 80.8166 319.76 79.5456C319.27 78.2747 318.56 77.1748 317.63 76.246C316.748 75.3172 315.671 74.6084 314.397 74.1196C313.173 73.5819 311.851 73.313 310.43 73.313Z" fill="white"></path> <path d="M335.107 102.423V64.8074H345.319V69.9401C346.592 68.2292 348.135 66.8605 349.947 65.834C351.808 64.8074 353.914 64.2942 356.264 64.2942V74.5596C352.493 74.5596 349.726 75.5372 347.963 77.4925C346.249 79.399 345.392 81.9897 345.392 85.2649V102.423H335.107Z" fill="white"></path> <path d="M383.805 64.8074H395.412L380.94 83.5051L396 102.423H383.291L371.316 86.9514V102.423H361.032V52.1957H371.316V81.672L383.805 64.8074Z" fill="white"></path> </svg> 