<?xml version="1.0" encoding="UTF-8"?> <svg xmlns="http://www.w3.org/2000/svg" width="136" height="41" viewBox="0 0 136 41" fill="none"> <path d="M130.875 40.2754H5.125C2.5625 40.2754 0.5 38.2129 0.5 35.6504V5.90039C0.5 3.33789 2.5625 1.27539 5.125 1.27539H130.875C133.438 1.27539 135.5 3.33789 135.5 5.90039V35.7129C135.5 38.2129 133.438 40.2754 130.875 40.2754Z" fill="#1F1F1F"></path> <path d="M130.875 40.7754H5.125C2.3125 40.7754 0 38.4629 0 35.6504V5.90039C0 3.08789 2.3125 0.775391 5.125 0.775391H130.875C133.688 0.775391 136 3.08789 136 5.90039V35.7129C136 38.5254 133.688 40.7754 130.875 40.7754ZM5.125 1.77539C2.875 1.77539 1 3.58789 1 5.90039V35.7129C1 37.9629 2.8125 39.8379 5.125 39.8379H130.875C133.125 39.8379 135 38.0254 135 35.7129V5.90039C135 3.65039 133.188 1.77539 130.875 1.77539H5.125Z" fill="#505050"></path> <path d="M68.625 22.6504C66.25 22.6504 64.3125 24.4629 64.3125 26.9004C64.3125 29.3379 66.25 31.1504 68.625 31.1504C71 31.1504 72.9375 29.3379 72.9375 26.9004C72.875 24.4629 71 22.6504 68.625 22.6504ZM68.625 29.5254C67.3125 29.5254 66.1875 28.4629 66.1875 26.9629C66.1875 25.4004 67.3125 24.4004 68.625 24.4004C69.9375 24.4004 71.0625 25.4629 71.0625 26.9629C71 28.4629 69.875 29.5254 68.625 29.5254ZM59.25 22.6504C56.875 22.6504 54.9375 24.4629 54.9375 26.9004C54.9375 29.3379 56.875 31.1504 59.25 31.1504C61.625 31.1504 63.5625 29.3379 63.5625 26.9004C63.5625 24.4629 61.625 22.6504 59.25 22.6504ZM59.25 29.5254C57.9375 29.5254 56.8125 28.4629 56.8125 26.9629C56.8125 25.4004 57.9375 24.4004 59.25 24.4004C60.5625 24.4004 61.6875 25.4629 61.6875 26.9629C61.6875 28.4629 60.5625 29.5254 59.25 29.5254ZM48.125 23.9629V25.7754H52.4375C52.3125 26.7754 51.9375 27.5254 51.4375 28.0879C50.8125 28.7129 49.8125 29.4004 48.0625 29.4004C45.375 29.4004 43.3125 27.2754 43.3125 24.5879C43.3125 21.9004 45.375 19.7754 48.0625 19.7754C49.5 19.7754 50.5625 20.3379 51.3125 21.0879L52.5625 19.8379C51.5 18.7754 50.0625 18.0254 48 18.0254C44.3125 18.0254 41.25 21.0254 41.25 24.6504C41.25 28.3379 44.3125 31.2754 48 31.2754C50 31.2754 51.4375 30.6504 52.625 29.4004C53.8125 28.2129 54.1875 26.5254 54.1875 25.1504C54.1875 24.7129 54.125 24.3379 54.0625 24.0254H48.125V23.9629ZM93.6875 25.4004C93.3125 24.4629 92.25 22.6504 90 22.6504C87.8125 22.6504 85.9375 24.4004 85.9375 26.9004C85.9375 29.2754 87.75 31.1504 90.1875 31.1504C92.125 31.1504 93.25 29.9629 93.75 29.2754L92.3125 28.2754C91.8125 28.9629 91.1875 29.4629 90.1875 29.4629C89.25 29.4629 88.5625 29.0254 88.125 28.1504L93.8125 25.7754L93.6875 25.4004ZM87.8125 26.8379C87.75 25.2129 89.0625 24.3379 90.0625 24.3379C90.8125 24.3379 91.4375 24.7129 91.625 25.2754L87.8125 26.8379ZM83.1875 30.9629H85.0625V18.4004H83.1875V30.9629ZM80.125 23.5879H80.0625C79.625 23.0879 78.8125 22.6504 77.8125 22.6504C75.6875 22.6504 73.6875 24.5254 73.6875 26.9629C73.6875 29.3379 75.625 31.2129 77.8125 31.2129C78.8125 31.2129 79.625 30.7754 80.0625 30.2129H80.125V30.8379C80.125 32.4629 79.25 33.3379 77.8125 33.3379C76.6875 33.3379 75.9375 32.5254 75.6875 31.8379L74.0625 32.5254C74.5625 33.6504 75.75 35.0254 77.875 35.0254C80.0625 35.0254 81.9375 33.7129 81.9375 30.5879V22.9004H80.125V23.5879ZM77.9375 29.5254C76.625 29.5254 75.5625 28.4629 75.5625 26.9629C75.5625 25.4629 76.625 24.3379 77.9375 24.3379C79.1875 24.3379 80.25 25.4629 80.25 26.9629C80.25 28.4629 79.25 29.5254 77.9375 29.5254ZM102.438 18.4004H97.9375V30.9629H99.8125V26.2129H102.438C104.5 26.2129 106.563 24.7129 106.563 22.3379C106.563 19.9004 104.563 18.4004 102.438 18.4004ZM102.5 24.4629H99.8125V20.1504H102.5C103.875 20.1504 104.688 21.3379 104.688 22.2754C104.688 23.2754 103.938 24.4629 102.5 24.4629ZM114.125 22.6504C112.75 22.6504 111.375 23.2754 110.75 24.5879L112.438 25.2754C112.813 24.5879 113.438 24.3379 114.125 24.3379C115.125 24.3379 116.063 24.9004 116.125 25.9629V26.0879C115.813 25.9004 115.063 25.5879 114.188 25.5879C112.375 25.5879 110.563 26.5879 110.563 28.4004C110.563 30.0879 112.063 31.1504 113.688 31.1504C114.938 31.1504 115.625 30.5879 116.063 29.9004H116.125V30.9004H117.938V26.0879C117.938 23.9004 116.25 22.6504 114.125 22.6504ZM113.875 29.5254C113.25 29.5254 112.375 29.2129 112.375 28.4629C112.375 27.4629 113.438 27.1504 114.375 27.1504C115.188 27.1504 115.563 27.3379 116.063 27.5879C115.938 28.7129 114.938 29.5254 113.875 29.5254ZM124.5 22.9004L122.375 28.3379H122.313L120.063 22.9004H118.063L121.438 30.5254L119.5 34.7754H121.438L126.625 22.9004H124.5ZM107.625 30.9629H109.5V18.4004H107.625V30.9629Z" fill="white"></path> <path d="M10.625 8.40039C10.3125 8.71289 10.1875 9.21289 10.1875 9.83789V32.0254C10.1875 32.6504 10.375 33.1504 10.625 33.4629L10.6875 33.5254L23.125 21.0254V20.9004V20.7754L10.6875 8.33789L10.625 8.40039Z" fill="#5BC9F4"></path> <path d="M27.25 25.2129L23.125 21.0879V20.9004V20.7754L27.25 16.6504L27.3125 16.7129L32.25 19.5254C33.625 20.3379 33.625 21.6504 32.25 22.4004L27.3125 25.2129H27.25Z" fill="url(#paint0_linear)"></path> <path d="M27.375 25.1504L23.125 20.9004L10.625 33.4004C11.0625 33.9004 11.875 33.9629 12.6875 33.4629L27.375 25.1504Z" fill="url(#paint1_linear)"></path> <path d="M27.375 16.6509L12.6875 8.33838C11.8125 7.83838 11.0625 7.90087 10.625 8.40087L23.125 20.9009L27.375 16.6509Z" fill="url(#paint2_linear)"></path> <path d="M46.1875 9.08789C45.8125 8.77539 45.3125 8.52539 44.75 8.52539C43.5 8.52539 42.5625 9.52539 42.5625 10.7754C42.5625 12.0254 43.5 13.0254 44.75 13.0254C45.8125 13.0254 46.5625 12.4004 46.625 11.4004H45V10.7129H47.5625C47.5625 12.7754 46.4375 13.7754 44.75 13.7754C43.0625 13.7754 41.75 12.4004 41.75 10.7754C41.75 9.08789 43.0625 7.71289 44.75 7.71289C45.5 7.71289 46.25 8.02539 46.75 8.46289L46.1875 9.08789Z" fill="white"></path> <path d="M52.1875 7.83789V8.58789H49.5V10.4629H51.875V11.2129H49.5V13.0254H52.3125V13.7754H48.75V7.83789H52.1875Z" fill="white"></path> <path d="M57.375 7.83789V8.58789H55.5625V13.7754H54.75V8.58789H52.9375V7.83789H57.375Z" fill="white"></path> <path d="M61.1875 7.83789V13.7754H60.375V7.83789H61.1875Z" fill="white"></path> <path d="M66.625 7.83789V8.58789H64.8125V13.7754H64V8.58789H62.1875V7.83789H66.625Z" fill="white"></path> <path d="M72.25 7.77539C73.9375 7.77539 75.25 9.15039 75.25 10.8379C75.25 12.5254 73.9375 13.8379 72.25 13.8379C70.5625 13.8379 69.25 12.4629 69.25 10.8379C69.25 9.15039 70.5625 7.77539 72.25 7.77539ZM72.25 13.0879C73.5 13.0879 74.4375 12.0879 74.4375 10.8379C74.4375 9.58789 73.5 8.58789 72.25 8.58789C71 8.58789 70.0625 9.58789 70.0625 10.8379C70.0625 12.0879 71 13.0879 72.25 13.0879Z" fill="white"></path> <path d="M80 13.7754L77.3125 9.33789V13.7754H76.5V7.83789H77.3125L80 12.2754V7.83789H80.8125V13.7754H80Z" fill="white"></path> <defs> <linearGradient id="paint0_linear" x1="31.3689" y1="20.902" x2="7.06538" y2="20.902" gradientUnits="userSpaceOnUse"> <stop stop-color="#FEE000"></stop> <stop offset="0.1941" stop-color="#FCCF0B"></stop> <stop offset="0.5469" stop-color="#FAB318"></stop> <stop offset="0.8279" stop-color="#F9A21B"></stop> <stop offset="1" stop-color="#F99B1C"></stop> </linearGradient> <linearGradient id="paint1_linear" x1="25.0618" y1="23.2068" x2="2.20331" y2="46.0653" gradientUnits="userSpaceOnUse"> <stop stop-color="#EF4547"></stop> <stop offset="1" stop-color="#C6186D"></stop> </linearGradient> <linearGradient id="paint2_linear" x1="2.10144" y1="-4.3635" x2="20.7648" y2="14.2999" gradientUnits="userSpaceOnUse"> <stop stop-color="#279E6F"></stop> <stop offset="0.3168" stop-color="#4DAB6D"></stop> <stop offset="0.7398" stop-color="#6ABA6A"></stop> <stop offset="1" stop-color="#74C169"></stop> </linearGradient> </defs> </svg> 